<?xml version="1.0" encoding="UTF-8" standalone="no"?> <svg xmlns="http://www.w3.org/2000/svg" viewBox="0 0 64 64"><g id="Layer_9" data-name="Layer 9"><path d="M59.4,53.82,53.51,24.37a6,6,0,0,0-5.88-4.83H45V16a13,13,0,0,0-26,0v3.54H16.37a6,6,0,0,0-5.88,4.83L4.6,53.82A6,6,0,0,0,10.48,61h43a6,6,0,0,0,5.88-7.18ZM21,16a11,11,0,0,1,22,0v3.54H21ZM56.61,57.54A4,4,0,0,1,53.52,59h-43a4,4,0,0,1-3.92-4.78l5.89-29.46a4,4,0,0,1,3.92-3.22H19v5.71a1,1,0,0,0,2,0V21.54H43v5.71a1,1,0,0,0,2,0V21.54h2.63a4,4,0,0,1,3.92,3.22l5.89,29.46A4,4,0,0,1,56.61,57.54Z"/></g></svg>